<mxfile host="app.diagrams.net" modified="2023-10-05T13:25:25.622Z" agent="Mozilla/5.0 (Windows NT 10.0; Win64; x64) AppleWebKit/537.36 (KHTML, like Gecko) Chrome/117.0.0.0 Safari/537.36" etag="PvcYKiwuK_UdLXUTbXqq" version="22.0.2" type="github">
  <diagram name="Page-1" id="J7pNc2jzAyI4eaKNCd6m">
    <mxGraphModel dx="2261" dy="790" grid="1" gridSize="10" guides="1" tooltips="1" connect="1" arrows="1" fold="1" page="1" pageScale="1" pageWidth="827" pageHeight="1169" math="0" shadow="0">
      <root>
        <mxCell id="0" />
        <mxCell id="1" parent="0" />
        <mxCell id="2TCdwBlKLAB9yFs61my--2" value="FRONTEND" style="swimlane;startSize=0;fillColor=#d5e8d4;strokeColor=#82b366;swimlaneFillColor=#E9FFE3;fontSize=17;" vertex="1" parent="1">
          <mxGeometry x="430" y="140" width="620" height="610" as="geometry" />
        </mxCell>
        <mxCell id="2TCdwBlKLAB9yFs61my--15" value="Login portal" style="rounded=1;whiteSpace=wrap;html=1;" vertex="1" parent="2TCdwBlKLAB9yFs61my--2">
          <mxGeometry x="10" y="107.5" width="70" height="375" as="geometry" />
        </mxCell>
        <mxCell id="2TCdwBlKLAB9yFs61my--18" value="Main area" style="rounded=1;whiteSpace=wrap;html=1;" vertex="1" parent="2TCdwBlKLAB9yFs61my--2">
          <mxGeometry x="100" y="10" width="500" height="580" as="geometry" />
        </mxCell>
        <mxCell id="2TCdwBlKLAB9yFs61my--19" value="Export module (reports, other formats)" style="rounded=1;whiteSpace=wrap;html=1;" vertex="1" parent="2TCdwBlKLAB9yFs61my--2">
          <mxGeometry x="420" y="470" width="150" height="100" as="geometry" />
        </mxCell>
        <mxCell id="2TCdwBlKLAB9yFs61my--20" value="Model Creator&lt;br&gt;(Create models etc based on requirements)&lt;br&gt;&lt;br&gt;" style="rounded=1;whiteSpace=wrap;html=1;" vertex="1" parent="2TCdwBlKLAB9yFs61my--2">
          <mxGeometry x="247" y="40" width="150" height="100" as="geometry" />
        </mxCell>
        <mxCell id="2TCdwBlKLAB9yFs61my--17" value="Surveyor&lt;br&gt;(feedback, surveys, questionnares, risk-calculations)" style="rounded=1;whiteSpace=wrap;html=1;" vertex="1" parent="2TCdwBlKLAB9yFs61my--2">
          <mxGeometry x="430" y="40" width="150" height="100" as="geometry" />
        </mxCell>
        <mxCell id="2TCdwBlKLAB9yFs61my--3" value="BACKEND" style="swimlane;startSize=0;fillColor=#dae8fc;strokeColor=#6C8EBF;glass=0;gradientColor=none;swimlaneFillColor=#A6E1FF;fontSize=17;" vertex="1" parent="1">
          <mxGeometry x="-260" y="140" width="690" height="610" as="geometry" />
        </mxCell>
        <mxCell id="2TCdwBlKLAB9yFs61my--4" value="AC&lt;br&gt;( Role-Based Access Control )" style="rounded=1;whiteSpace=wrap;html=1;" vertex="1" parent="2TCdwBlKLAB9yFs61my--3">
          <mxGeometry x="50" y="170" width="120" height="60" as="geometry" />
        </mxCell>
        <mxCell id="2TCdwBlKLAB9yFs61my--13" value="" style="edgeStyle=orthogonalEdgeStyle;rounded=0;orthogonalLoop=1;jettySize=auto;html=1;" edge="1" parent="2TCdwBlKLAB9yFs61my--3" source="2TCdwBlKLAB9yFs61my--5" target="2TCdwBlKLAB9yFs61my--12">
          <mxGeometry relative="1" as="geometry" />
        </mxCell>
        <mxCell id="2TCdwBlKLAB9yFs61my--5" value="Application Portfolio Manager&lt;br&gt;(relationship between costs, integrations, and technical and functional maturity for all applications by for example the use of a Gartner TIME Matrix)" style="rounded=1;whiteSpace=wrap;html=1;" vertex="1" parent="2TCdwBlKLAB9yFs61my--3">
          <mxGeometry x="400" y="230" width="200" height="130" as="geometry" />
        </mxCell>
        <mxCell id="2TCdwBlKLAB9yFs61my--7" value="LICENSING&lt;br&gt;(cost calculations)" style="rounded=1;whiteSpace=wrap;html=1;" vertex="1" parent="2TCdwBlKLAB9yFs61my--3">
          <mxGeometry x="50" y="50" width="120" height="60" as="geometry" />
        </mxCell>
        <mxCell id="2TCdwBlKLAB9yFs61my--8" value="FEEDBACK&lt;br&gt;(surveys, questionnares etc)" style="rounded=1;whiteSpace=wrap;html=1;" vertex="1" parent="2TCdwBlKLAB9yFs61my--3">
          <mxGeometry x="50" y="275" width="120" height="60" as="geometry" />
        </mxCell>
        <mxCell id="2TCdwBlKLAB9yFs61my--9" value="Portal&lt;br&gt;(tokens, sessions, logins etc.)" style="rounded=1;whiteSpace=wrap;html=1;" vertex="1" parent="2TCdwBlKLAB9yFs61my--3">
          <mxGeometry x="410" y="70" width="120" height="60" as="geometry" />
        </mxCell>
        <mxCell id="2TCdwBlKLAB9yFs61my--12" value="Store relationships&lt;br&gt;" style="shape=trapezoid;perimeter=trapezoidPerimeter;whiteSpace=wrap;html=1;fixedSize=1;rounded=1;" vertex="1" parent="2TCdwBlKLAB9yFs61my--3">
          <mxGeometry x="350" y="400" width="190" height="90" as="geometry" />
        </mxCell>
      </root>
    </mxGraphModel>
  </diagram>
</mxfile>
